<svg width="80" height="80" viewBox="0 0 80 80" fill="none" xmlns="http://www.w3.org/2000/svg">
<g clip-path="url(#clip0_490_2519)">
<path fill-rule="evenodd" clip-rule="evenodd" d="M41.1799 28.24V23.53H43.5299V25.88H45.8799V28.23H41.1699L41.1799 28.24ZM38.8299 56.48V54.13H41.1799V49.42H43.5299V44.71H41.1799V42.36H38.8299V40.01H29.4199V37.66H43.5399V40.01H45.8899V47.07H48.2399V51.78H45.8899V54.13H43.5399V56.48H38.8299ZM36.4799 56.48V58.83H45.8899V54.12H48.2399V51.77H50.5899V47.06H48.2399V40H45.8899V37.65H43.5399V35.3H27.0699V32.95H24.7199V37.66H27.0699V42.37H38.8299V44.72H41.1799V49.43H38.8299V54.14H36.4799V56.49V56.48ZM10.5999 56.48V54.13H12.9499V56.48H10.5999ZM57.6599 77.66V75.31H55.3099V72.96H52.9599V63.55H55.3099V58.84H57.6599V56.49H67.0699V58.84H69.4199V61.19H71.7699V72.95H69.4199V75.3H67.0699V77.65H57.6599V77.66ZM24.7099 2.35H27.0599V4.7H29.4099V7.05H31.7599V9.4H29.4099V16.46H24.6999V25.87H27.0499V28.22H29.3999V30.57H45.8699V28.22H52.9299V30.57H55.2799V35.28H52.9299V37.63H50.5799V39.98H52.9299V44.69H55.2799V49.4H57.6299V51.75H59.9799V54.1H57.6299V56.45H55.2799V58.8H52.9299V63.51H50.5799V68.22H27.0499V72.93H24.6999V75.28H22.3499V77.63H12.9399V75.28H10.5899V72.93H8.23992V61.17H10.5899V58.82H12.9399V56.47H22.3499V58.82H24.6999V61.17H27.0499V65.88H29.3999V61.17H27.0499V58.82H24.6999V56.47H22.3499V54.12H12.9399V47.06H17.6499V49.41H31.7699V54.12H34.1199V47.06H17.6499V32.94H15.2999V25.88H17.6499V18.82H19.9999V11.76H17.6499V7.05H19.9999V4.7H22.3499V2.35H24.6999H24.7099ZM52.9499 25.88H45.8899V23.53H43.5399V21.18H41.1899V23.53H38.8399V28.24H29.4299V25.89H27.0799V18.83H29.4299V16.48H31.7799V9.42H34.1299V7.07H31.7799V4.72H29.4299V2.37H27.0799V0H22.3699V2.35H20.0199V4.7H17.6699V7.05H15.3199V11.76H17.6699V18.82H15.3199V25.88H12.9699V32.94H15.3199V44.7H12.9699V47.05H10.6199V54.11H8.26992V58.82H5.91992V72.94H8.26992V75.29H10.6199V77.64H12.9699V79.99H22.3799V77.64H24.7299V75.29H27.0799V72.94H29.4299V70.59H50.6099V72.94H52.9599V75.29H55.3099V77.64H57.6599V79.99H67.0699V77.64H69.4199V75.29H71.7699V72.94H74.1199V61.18H71.7699V58.83H69.4199V56.48H67.0699V54.13H62.3599V51.78H60.0099V49.43H57.6599V44.72H55.3099V40.01H52.9599V37.66H55.3099V35.31H57.6599V30.6H55.3099V28.25H52.9599V25.9L52.9499 25.88Z" fill="#231F20"/>
<path fill-rule="evenodd" clip-rule="evenodd" d="M19.9999 11.76V14.12H22.3499H24.7099V11.76V9.40998H27.0599H29.4099H31.7599V7.05998H29.4099V4.70998H27.0599V2.34998H24.7099H22.3499V4.70998H19.9999V7.05998H17.6499V9.40998V11.76H19.9999Z" fill="#E5E6E7"/>
<path fill-rule="evenodd" clip-rule="evenodd" d="M62.35 65.88H60V63.53H57.65V61.18V58.82H60H62.35H64.71H67.06V61.18H69.41V63.53H71.76V61.18H69.41V58.82H67.06V56.47H64.71H62.35H60H57.65V58.82H55.29V61.18V63.53H57.65V65.88H60V68.24H62.35V65.88Z" fill="#FCB72B"/>
<path fill-rule="evenodd" clip-rule="evenodd" d="M10.59 61.18H8.23999V63.53H10.59V61.18H12.94V58.82H15.29H17.65H20H22.35V61.18H24.71V63.53V65.88H27.06V63.53V61.18H24.71V58.82H22.35V56.47H20H17.65H15.29H12.94V58.82H10.59V61.18Z" fill="#FCB72B"/>
<path fill-rule="evenodd" clip-rule="evenodd" d="M43.5299 23.53H41.1799V25.88V28.24H43.5299H45.8799V25.88H43.5299V23.53Z" fill="#FCB72B"/>
<path fill-rule="evenodd" clip-rule="evenodd" d="M50.5898 32.94V30.59H52.9398V35.3H50.5898V32.95V32.94ZM27.0598 58.82V61.17H29.4098V58.82H31.7598V51.76H12.9398V54.11H10.5898V56.46H12.9398V54.11H22.3498V56.46H24.6998V58.81H27.0498L27.0598 58.82ZM19.9998 65.88V68.23H31.7598V65.88H24.6998V61.17H22.3498V58.82H12.9398V61.17H10.5898V65.88H19.9998ZM52.9398 28.24H45.8798V30.59H43.5298V32.94H45.8798V35.29H43.5298V37.64H45.8798V39.99H48.2298V47.05H50.5798V51.76H48.2298V54.11H45.8798V58.82H36.4698V61.17H34.1198V65.88H36.4698V68.23H50.5898V63.52H52.9398V58.81H55.2898V56.46H57.6398V54.11H59.9898V51.76H57.6398V49.41H55.2898V44.7H52.9398V39.99H50.5898V37.64H52.9398V35.29H55.2898V30.58H52.9398V28.23V28.24Z" fill="#FFC960"/>
<path d="M52.9398 30.59H50.5898V32.94H52.9398V30.59Z" fill="white"/>
<path d="M52.9398 32.94H50.5898V35.29H52.9398V32.94Z" fill="white"/>
<path fill-rule="evenodd" clip-rule="evenodd" d="M22.35 16.47V18.82H24.7V16.47H29.41V9.40997H24.7V14.12H19.99V16.47H22.34H22.35ZM43.53 30.59H38.82V32.94H36.47V35.29H38.82V32.94H41.17V35.29H45.88V32.94H43.53V30.59Z" fill="#F48366"/>
<path fill-rule="evenodd" clip-rule="evenodd" d="M60 75.29H57.65V72.94H55.3V63.53H52.95V72.94H55.3V75.29H57.65V77.64H67.06V75.29H69.41V72.94H71.76V63.53H69.41V61.18H67.06V58.83H57.65V61.18H67.06V63.53H69.41V72.94H67.06V75.29H60ZM8.23999 70.58V72.93H10.59V75.28H12.94V77.63H22.35V75.28H24.7V72.93H27.05V68.22H24.7V72.93H22.35V75.28H12.94V72.93H10.59V63.52H8.23999V70.58ZM41.18 32.93H38.83V35.28H41.18V32.93Z" fill="#58595B"/>
<path fill-rule="evenodd" clip-rule="evenodd" d="M22.35 16.47H20V18.82H17.65V21.18V23.53V25.88H15.29V28.24V30.59V32.94H17.65V35.29V37.65V40V42.35H20H22.35H24.71H27.06V40V37.65H24.71V35.29V32.94V30.59H22.35V28.24H20V25.88V23.53V21.18H22.35H24.71V18.82H22.35V16.47Z" fill="#58595B"/>
<path fill-rule="evenodd" clip-rule="evenodd" d="M24.71 21.18H22.35H20V23.53V25.88V28.24H22.35V30.59H24.71V32.94H27.06V35.29H29.41H31.76H34.12H36.47V32.94H38.82V30.59H36.47H34.12H31.76H29.41V28.24H27.06V25.88H24.71V23.53V21.18Z" fill="#E5E6E7"/>
<path fill-rule="evenodd" clip-rule="evenodd" d="M64.7098 70.59V65.88H67.0598V70.59H64.7098ZM57.6498 70.59V63.53H64.7098V65.88H62.3598V68.23H60.0098V70.58H57.6598L57.6498 70.59ZM59.9998 72.94V70.59H64.7098V72.94H59.9998ZM17.6498 72.94H15.2998V70.59H20.0098V72.94H17.6598H17.6498ZM12.9398 72.94V75.29H22.3498V72.94H24.6998V68.23H22.3498V70.58H19.9998V65.87H15.2898V70.58H12.9398V65.87H10.5898V72.93H12.9398V72.94ZM67.0598 61.18H57.6498V63.53H55.2998V72.94H57.6498V75.29H67.0598V72.94H69.4098V63.53H67.0598V61.18Z" fill="#D7BEAA"/>
<path fill-rule="evenodd" clip-rule="evenodd" d="M41.1799 44.71H38.8199V42.35H36.4699H34.1199H31.7599H29.4099H27.0599H24.7099H22.3499H19.9999H17.6499V44.71V47.06H19.9999H22.3499H24.7099H27.0599H29.4099H31.7599H34.1199V49.41V51.76V54.12H31.7599V56.47V58.82H29.4099V61.18H31.7599H34.1199H36.4699V58.82V56.47V54.12H38.8199V51.76V49.41H41.1799V47.06V44.71Z" fill="#485E87"/>
<path fill-rule="evenodd" clip-rule="evenodd" d="M31.7599 49.41H29.4099H27.0599H24.7099H22.3499H19.9999H17.6499V47.06H15.2899H12.9399V49.41V51.76H15.2899H17.6499H19.9999H22.3499H24.7099H27.0599H29.4099H31.7599V49.41Z" fill="#A15641"/>
<path fill-rule="evenodd" clip-rule="evenodd" d="M34.1199 61.18H31.7599H29.4099V63.53V65.88H31.7599V68.24H34.1199H36.4699V65.88H34.1199V63.53V61.18Z" fill="#43525A"/>
<path fill-rule="evenodd" clip-rule="evenodd" d="M20 72.94V70.59H17.65H15.29V72.94H17.65H20Z" fill="#E5E6E7"/>
<path fill-rule="evenodd" clip-rule="evenodd" d="M15.2899 70.59V68.24V65.88H12.9399V68.24V70.59H15.2899Z" fill="#E5E6E7"/>
<path d="M22.35 68.24H20V70.59H22.35V68.24Z" fill="#E5E6E7"/>
<path fill-rule="evenodd" clip-rule="evenodd" d="M57.6499 68.24V70.59H59.9999V68.24V65.88H57.6499V68.24Z" fill="#E5E6E7"/>
<path fill-rule="evenodd" clip-rule="evenodd" d="M62.35 70.59H60V72.94H62.35H64.71V70.59H62.35Z" fill="#E5E6E7"/>
<path fill-rule="evenodd" clip-rule="evenodd" d="M64.71 68.24V70.59H67.06V68.24V65.88H64.71V68.24Z" fill="#E5E6E7"/>
<path fill-rule="evenodd" clip-rule="evenodd" d="M62.35 65.88H64.71V63.53H62.35H60V65.88H62.35Z" fill="#E5E6E7"/>
</g>
<defs>
<clipPath id="clip0_490_2519">
<rect width="80" height="80" fill="white"/>
</clipPath>
</defs>
</svg>
