<svg width="24" height="24" viewBox="0 0 24 24" fill="none" xmlns="http://www.w3.org/2000/svg">
<rect x="6" y="2" width="2" height="2" fill="#5A5A5A"/>
<rect x="4" y="20" width="16" height="2" fill="#5A5A5A"/>
<rect x="4" y="4" width="16" height="2" fill="#5A5A5A"/>
<rect x="2" y="6" width="2" height="14" fill="#5A5A5A"/>
<rect x="20" y="6" width="2" height="14" fill="#5A5A5A"/>
<rect x="16" y="2" width="2" height="2" fill="#5A5A5A"/>
<rect width="8" height="2" transform="matrix(-1 -4.37114e-08 -4.37114e-08 1 18 12)" fill="#5A5A5A"/>
<rect width="2" height="2" transform="matrix(-1 -4.37114e-08 -4.37114e-08 1 8 12)" fill="#5A5A5A"/>
<rect width="2" height="2" transform="matrix(-1 -4.37114e-08 -4.37114e-08 1 10 10)" fill="#5A5A5A"/>
<rect width="2" height="2" transform="matrix(-1 -4.37114e-08 -4.37114e-08 1 12 8)" fill="#5A5A5A"/>
<rect width="2" height="2" transform="matrix(-1 -4.37114e-08 -4.37114e-08 1 10 14)" fill="#5A5A5A"/>
<rect width="2" height="2" transform="matrix(-1 -4.37114e-08 -4.37114e-08 1 12 16)" fill="#5A5A5A"/>
</svg>
