<svg width="80" height="80" viewBox="0 0 80 80" fill="none" xmlns="http://www.w3.org/2000/svg">
<g clip-path="url(#clip0_571_2560)">
<path fill-rule="evenodd" clip-rule="evenodd" d="M32.1704 62.68V60.44H47.8304V62.68H41.1204H32.1704Z" fill="#010101"/>
<path fill-rule="evenodd" clip-rule="evenodd" d="M32.1702 62.68V64.92H34.4102H41.1202H43.3502H45.5902H47.8302V62.68H50.0602V64.92H52.3002V67.15H43.3502H34.4102H29.9402H27.7002V64.92H29.9402V62.68H32.1702Z" fill="#010101"/>
<path fill-rule="evenodd" clip-rule="evenodd" d="M32.1704 62.68H41.1204V64.92H34.4104H32.1704V62.68Z" fill="#D13E3C"/>
<path fill-rule="evenodd" clip-rule="evenodd" d="M41.1201 64.92V62.68H47.8301V64.92H45.5901H43.3501H41.1201Z" fill="#A31E22"/>
<path fill-rule="evenodd" clip-rule="evenodd" d="M25.4702 67.15H27.7002V69.39H29.9402H36.6502H43.3502H47.8302H50.0602H52.3002V67.15H54.5302V69.39V71.62H52.3002H43.3502H38.8802H36.6502H34.4102H32.1702H29.9402H27.7002H25.4702V69.39V67.15Z" fill="#010101"/>
<path fill-rule="evenodd" clip-rule="evenodd" d="M27.7002 67.15H29.9402H34.4102H43.3502V69.39H36.6502H29.9402H27.7002V67.15Z" fill="#CECDC8"/>
<path fill-rule="evenodd" clip-rule="evenodd" d="M43.3501 69.39V67.15H52.3001V69.39H50.0601H47.8301H43.3501Z" fill="#A8A38F"/>
<path d="M23.0698 38.18V22.35H26.5998V19.87H28.3698V17.38H30.0598V14.89H45.9798V17.38H47.6698V19.87H49.4398V22.35H50.4898V26.53H52.9698V31.46H56.9298V36.33H51.7298V33.85H45.7098V55.14H42.1798V38.82H39.6898V45.64H36.1598V36.33H33.6698V43.15H30.1398V33.85H27.6498V40.66H24.1198V38.18H23.0698Z" fill="#FCBF8A"/>
<path d="M39.6902 38.82V45.64H36.1602V48.13H39.6902V55.14H42.1802V38.82H39.6902Z" fill="#010101"/>
<path d="M33.6701 36.33V43.15H30.1401V45.64H33.6701H36.1601V36.33H33.6701Z" fill="#010101"/>
<path d="M26.5998 19.87H28.3698V17.38H30.0598V14.89H45.9798V17.38H47.6698V19.87H49.4398V22.35H50.4898V24.05V26.53H52.9698V28.97V31.41V31.46H56.9298V36.33H59.4198V28.97H56.9898H56.9298H55.4598V26.53V24.05H52.9698V22.35V21.56V19.87H51.2098V17.38H49.3698V14.89H47.2298V12.4H28.7898V14.89H26.6798V17.38H24.8398V19.87H23.0698V22.35H26.5998V19.87Z" fill="#010101"/>
<path d="M48.2 33.85H45.71V55.14H48.2V36.33H51.73V33.85H48.2Z" fill="#010101"/>
<path d="M56.93 36.33H51.73V38.82H56.93V36.33Z" fill="#010101"/>
<path d="M24.1201 40.66V38.18H23.0701V22.35H20.5801V38.18V40.61V40.66H24.1201Z" fill="#010101"/>
<path d="M27.6501 33.85V40.66H24.1201V43.15H27.6501H30.1401V33.85H27.6501Z" fill="#010101"/>
<path d="M45.7102 55.14H42.1802V57.63H45.7102V55.14Z" fill="#010101"/>
</g>
<defs>
<clipPath id="clip0_571_2560">
<rect width="80" height="80" fill="white"/>
</clipPath>
</defs>
</svg>
