<svg width="24" height="24" viewBox="0 0 24 24" fill="none" xmlns="http://www.w3.org/2000/svg">
<rect width="2" height="2" transform="matrix(-1 0 0 1 6 11)" fill="white"/>
<rect width="2" height="2" transform="matrix(-1 0 0 1 12 11)" fill="white"/>
<rect width="2" height="2" transform="matrix(-1 0 0 1 16 11)" fill="white"/>
<rect width="2" height="2" transform="matrix(-1 0 0 1 20 11)" fill="white"/>
<rect width="2" height="2" transform="matrix(-1 0 0 1 9 14)" fill="white"/>
<rect width="2" height="2" transform="matrix(-1 0 0 1 9 8)" fill="white"/>
<rect width="2" height="2" transform="matrix(-1 0 0 1 12 17)" fill="white"/>
<rect width="2" height="2" transform="matrix(-1 0 0 1 12 5)" fill="white"/>
</svg>
