<svg width="24" height="24" viewBox="0 0 24 24" fill="none" xmlns="http://www.w3.org/2000/svg">
<rect x="8" y="3" width="8" height="2" fill="white"/>
<rect x="6" y="5" width="2" height="2" fill="white"/>
<rect x="11" y="9" width="2" height="2" fill="white"/>
<rect x="6" y="13" width="2" height="2" fill="white"/>
<rect x="10" y="17" width="2" height="2" fill="white"/>
<rect x="11" y="19" width="2" height="2" fill="white"/>
<rect width="2" height="2" transform="matrix(-1 0 0 1 18 5)" fill="white"/>
<rect width="2" height="2" transform="matrix(-1 0 0 1 18 13)" fill="white"/>
<rect width="2" height="2" transform="matrix(-1 0 0 1 14 17)" fill="white"/>
<rect width="2" height="2" transform="matrix(-1 0 0 1 16 15)" fill="white"/>
<rect width="2" height="2" transform="matrix(-1 0 0 1 10 15)" fill="white"/>
<rect x="4" y="7" width="2" height="6" fill="white"/>
<rect width="2" height="6" transform="matrix(-1 0 0 1 20 7)" fill="white"/>
</svg>
