<svg width="24" height="24" viewBox="0 0 24 24" fill="none" xmlns="http://www.w3.org/2000/svg">
<rect x="7" y="3" width="6" height="2" fill="white"/>
<rect width="6" height="2" transform="matrix(1 0 0 -1 7 17)" fill="white"/>
<rect x="3" y="7" width="2" height="6" fill="white"/>
<rect width="2" height="6" transform="matrix(-1 0 0 1 17 7)" fill="white"/>
<rect x="5" y="5" width="2" height="2" fill="white"/>
<rect width="2" height="2" transform="matrix(1 0 0 -1 5 15)" fill="white"/>
<rect width="2" height="2" transform="matrix(-1 0 0 1 15 5)" fill="white"/>
<rect x="15" y="15" width="2" height="2" transform="rotate(180 15 15)" fill="white"/>
<rect width="2" height="2" transform="matrix(1 0 0 -1 15 17)" fill="white"/>
<rect width="2" height="2" transform="matrix(1 0 0 -1 17 19)" fill="white"/>
<rect width="2" height="2" transform="matrix(1 0 0 -1 19 21)" fill="white"/>
</svg>
