<svg width="24" height="24" viewBox="0 0 24 24" fill="none" xmlns="http://www.w3.org/2000/svg">
<rect x="10" y="2" width="4" height="2" fill="#5A5A5A"/>
<rect x="10" y="20" width="4" height="2" fill="#5A5A5A"/>
<rect x="11" y="8" width="2" height="4" fill="#5A5A5A"/>
<rect x="6" y="6" width="2" height="2" fill="#5A5A5A"/>
<rect width="2" height="2" transform="matrix(-1 0 0 1 8 16)" fill="#5A5A5A"/>
<rect x="18" y="18" width="2" height="2" transform="rotate(180 18 18)" fill="#5A5A5A"/>
<rect x="4" y="8" width="2" height="2" fill="#5A5A5A"/>
<rect width="2" height="2" transform="matrix(-1 0 0 1 10 18)" fill="#5A5A5A"/>
<rect x="20" y="16" width="2" height="2" transform="rotate(180 20 16)" fill="#5A5A5A"/>
<rect x="2" y="10" width="2" height="4" fill="#5A5A5A"/>
<rect x="20" y="10" width="2" height="4" fill="#5A5A5A"/>
<rect x="18" y="8" width="2" height="2" fill="#5A5A5A"/>
<rect x="8" y="4" width="2" height="2" fill="#5A5A5A"/>
<rect width="2" height="2" transform="matrix(-1 0 0 1 6 14)" fill="#5A5A5A"/>
<rect x="16" y="20" width="2" height="2" transform="rotate(180 16 20)" fill="#5A5A5A"/>
<rect x="16" y="6" width="2" height="2" fill="#5A5A5A"/>
<rect x="14" y="4" width="2" height="2" fill="#5A5A5A"/>
<rect x="11" y="14" width="2" height="2" fill="#5A5A5A"/>
</svg>
